<mxfile host="app.diagrams.net" modified="2023-04-16T19:27:41.012Z" agent="Mozilla/5.0 (Windows NT 10.0; Win64; x64) AppleWebKit/537.36 (KHTML, like Gecko) Chrome/112.0.0.0 Safari/537.36" etag="34OIyiplHfvXA9AjoOu2" version="21.1.8" type="device">
  <diagram id="R2lEEEUBdFMjLlhIrx00" name="Page-1">
    <mxGraphModel dx="1050" dy="562" grid="1" gridSize="10" guides="1" tooltips="1" connect="1" arrows="1" fold="1" page="1" pageScale="1" pageWidth="850" pageHeight="1100" math="0" shadow="0" extFonts="Permanent Marker^https://fonts.googleapis.com/css?family=Permanent+Marker">
      <root>
        <mxCell id="0" />
        <mxCell id="1" parent="0" />
        <mxCell id="cbsw2s5uwA30YLcsl4jI-1" value="user" style="whiteSpace=wrap;html=1;align=center;" parent="1" vertex="1">
          <mxGeometry x="175" y="385" width="100" height="40" as="geometry" />
        </mxCell>
        <mxCell id="cbsw2s5uwA30YLcsl4jI-2" value="penumpang" style="whiteSpace=wrap;html=1;align=center;" parent="1" vertex="1">
          <mxGeometry x="485" y="135" width="100" height="40" as="geometry" />
        </mxCell>
        <mxCell id="cbsw2s5uwA30YLcsl4jI-5" value="pesanan" style="whiteSpace=wrap;html=1;align=center;" parent="1" vertex="1">
          <mxGeometry x="485" y="385" width="100" height="40" as="geometry" />
        </mxCell>
        <mxCell id="cbsw2s5uwA30YLcsl4jI-6" value="booking" style="whiteSpace=wrap;html=1;align=center;" parent="1" vertex="1">
          <mxGeometry x="455" y="655" width="160" height="80" as="geometry" />
        </mxCell>
        <mxCell id="cbsw2s5uwA30YLcsl4jI-8" value="" style="endArrow=none;html=1;rounded=0;entryX=0;entryY=0.5;entryDx=0;entryDy=0;exitX=1;exitY=0.5;exitDx=0;exitDy=0;" parent="1" source="cbsw2s5uwA30YLcsl4jI-9" target="cbsw2s5uwA30YLcsl4jI-1" edge="1">
          <mxGeometry width="50" height="50" relative="1" as="geometry">
            <mxPoint x="125" y="365" as="sourcePoint" />
            <mxPoint x="175" y="545" as="targetPoint" />
          </mxGeometry>
        </mxCell>
        <mxCell id="cbsw2s5uwA30YLcsl4jI-9" value="email" style="ellipse;whiteSpace=wrap;html=1;align=center;" parent="1" vertex="1">
          <mxGeometry x="65" y="385" width="100" height="40" as="geometry" />
        </mxCell>
        <mxCell id="cbsw2s5uwA30YLcsl4jI-10" value="id" style="ellipse;whiteSpace=wrap;html=1;align=center;fontStyle=4;fillColor=#dae8fc;strokeColor=#6c8ebf;" parent="1" vertex="1">
          <mxGeometry x="200" y="315" width="100" height="40" as="geometry" />
        </mxCell>
        <mxCell id="cbsw2s5uwA30YLcsl4jI-12" value="password_hash" style="ellipse;whiteSpace=wrap;html=1;align=center;" parent="1" vertex="1">
          <mxGeometry x="165" y="445" width="100" height="40" as="geometry" />
        </mxCell>
        <mxCell id="cbsw2s5uwA30YLcsl4jI-13" value="nama" style="ellipse;whiteSpace=wrap;html=1;align=center;" parent="1" vertex="1">
          <mxGeometry x="100" y="320" width="100" height="40" as="geometry" />
        </mxCell>
        <mxCell id="cbsw2s5uwA30YLcsl4jI-14" value="" style="endArrow=none;html=1;rounded=0;entryX=0.25;entryY=0;entryDx=0;entryDy=0;exitX=0.5;exitY=1;exitDx=0;exitDy=0;" parent="1" source="cbsw2s5uwA30YLcsl4jI-13" target="cbsw2s5uwA30YLcsl4jI-1" edge="1">
          <mxGeometry width="50" height="50" relative="1" as="geometry">
            <mxPoint x="75" y="375" as="sourcePoint" />
            <mxPoint x="185" y="395" as="targetPoint" />
          </mxGeometry>
        </mxCell>
        <mxCell id="cbsw2s5uwA30YLcsl4jI-16" value="" style="endArrow=none;html=1;rounded=0;entryX=0.5;entryY=0;entryDx=0;entryDy=0;exitX=0.5;exitY=1;exitDx=0;exitDy=0;" parent="1" source="cbsw2s5uwA30YLcsl4jI-10" target="cbsw2s5uwA30YLcsl4jI-1" edge="1">
          <mxGeometry width="50" height="50" relative="1" as="geometry">
            <mxPoint x="185" y="335" as="sourcePoint" />
            <mxPoint x="210" y="395" as="targetPoint" />
          </mxGeometry>
        </mxCell>
        <mxCell id="cbsw2s5uwA30YLcsl4jI-17" value="" style="endArrow=none;html=1;rounded=0;entryX=0.5;entryY=1;entryDx=0;entryDy=0;exitX=0.5;exitY=0;exitDx=0;exitDy=0;" parent="1" source="cbsw2s5uwA30YLcsl4jI-12" target="cbsw2s5uwA30YLcsl4jI-1" edge="1">
          <mxGeometry width="50" height="50" relative="1" as="geometry">
            <mxPoint x="75" y="375" as="sourcePoint" />
            <mxPoint x="185" y="395" as="targetPoint" />
          </mxGeometry>
        </mxCell>
        <mxCell id="cbsw2s5uwA30YLcsl4jI-21" value="membuat" style="shape=rhombus;perimeter=rhombusPerimeter;whiteSpace=wrap;html=1;align=center;" parent="1" vertex="1">
          <mxGeometry x="475" y="505" width="120" height="60" as="geometry" />
        </mxCell>
        <mxCell id="cbsw2s5uwA30YLcsl4jI-24" value="1" style="endArrow=none;html=1;rounded=0;entryX=0;entryY=0.5;entryDx=0;entryDy=0;exitX=1;exitY=0.5;exitDx=0;exitDy=0;" parent="1" source="cbsw2s5uwA30YLcsl4jI-1" edge="1">
          <mxGeometry x="0.7143" y="10" width="50" height="50" relative="1" as="geometry">
            <mxPoint x="355" y="365" as="sourcePoint" />
            <mxPoint x="345" y="405" as="targetPoint" />
            <mxPoint as="offset" />
          </mxGeometry>
        </mxCell>
        <mxCell id="cbsw2s5uwA30YLcsl4jI-25" value="N" style="endArrow=none;html=1;rounded=0;entryX=0;entryY=0.5;entryDx=0;entryDy=0;exitX=1;exitY=0.5;exitDx=0;exitDy=0;" parent="1" target="cbsw2s5uwA30YLcsl4jI-5" edge="1">
          <mxGeometry x="-0.7143" y="10" width="50" height="50" relative="1" as="geometry">
            <mxPoint x="445" y="405" as="sourcePoint" />
            <mxPoint x="435" y="365" as="targetPoint" />
            <mxPoint as="offset" />
          </mxGeometry>
        </mxCell>
        <mxCell id="cbsw2s5uwA30YLcsl4jI-26" value="1" style="endArrow=none;html=1;rounded=0;entryX=0.5;entryY=0;entryDx=0;entryDy=0;exitX=0.5;exitY=1;exitDx=0;exitDy=0;" parent="1" source="cbsw2s5uwA30YLcsl4jI-5" target="cbsw2s5uwA30YLcsl4jI-21" edge="1">
          <mxGeometry x="0.7778" y="10" width="50" height="50" relative="1" as="geometry">
            <mxPoint x="375" y="385" as="sourcePoint" />
            <mxPoint x="445" y="375" as="targetPoint" />
            <mxPoint as="offset" />
          </mxGeometry>
        </mxCell>
        <mxCell id="cbsw2s5uwA30YLcsl4jI-27" value="1" style="endArrow=none;html=1;rounded=0;entryX=0.5;entryY=1;entryDx=0;entryDy=0;exitX=0.5;exitY=0;exitDx=0;exitDy=0;" parent="1" source="cbsw2s5uwA30YLcsl4jI-6" target="cbsw2s5uwA30YLcsl4jI-21" edge="1">
          <mxGeometry x="0.75" y="-10" width="50" height="50" relative="1" as="geometry">
            <mxPoint x="385" y="395" as="sourcePoint" />
            <mxPoint x="455" y="385" as="targetPoint" />
            <mxPoint as="offset" />
          </mxGeometry>
        </mxCell>
        <mxCell id="cbsw2s5uwA30YLcsl4jI-29" value="N" style="endArrow=none;html=1;rounded=0;entryX=0.5;entryY=0;entryDx=0;entryDy=0;exitX=0.5;exitY=1;exitDx=0;exitDy=0;" parent="1" source="cbsw2s5uwA30YLcsl4jI-2" target="_WI1TuEGPHx-UAho9HKx-4" edge="1">
          <mxGeometry x="0.6599" y="10" width="50" height="50" relative="1" as="geometry">
            <mxPoint x="405" y="415" as="sourcePoint" />
            <mxPoint x="475" y="405" as="targetPoint" />
            <mxPoint as="offset" />
          </mxGeometry>
        </mxCell>
        <mxCell id="cbsw2s5uwA30YLcsl4jI-38" value="nama_pemesan" style="ellipse;whiteSpace=wrap;html=1;align=center;" parent="1" vertex="1">
          <mxGeometry x="605" y="305" width="100" height="40" as="geometry" />
        </mxCell>
        <mxCell id="cbsw2s5uwA30YLcsl4jI-39" value="id_pesanan" style="ellipse;whiteSpace=wrap;html=1;align=center;fontStyle=4;fillColor=#dae8fc;strokeColor=#6c8ebf;" parent="1" vertex="1">
          <mxGeometry x="415" y="325" width="100" height="40" as="geometry" />
        </mxCell>
        <mxCell id="cbsw2s5uwA30YLcsl4jI-40" value="&lt;font style=&quot;font-size: 10px;&quot;&gt;email_pemesan&lt;/font&gt;" style="ellipse;whiteSpace=wrap;html=1;align=center;" parent="1" vertex="1">
          <mxGeometry x="655" y="355" width="100" height="40" as="geometry" />
        </mxCell>
        <mxCell id="cbsw2s5uwA30YLcsl4jI-41" value="&lt;font style=&quot;font-size: 10px;&quot;&gt;tlp_pemesan&lt;/font&gt;" style="ellipse;whiteSpace=wrap;html=1;align=center;" parent="1" vertex="1">
          <mxGeometry x="645" y="415" width="100" height="40" as="geometry" />
        </mxCell>
        <mxCell id="cbsw2s5uwA30YLcsl4jI-42" value="jumlah_penumpang" style="ellipse;whiteSpace=wrap;html=1;align=center;" parent="1" vertex="1">
          <mxGeometry x="565" y="465" width="120" height="40" as="geometry" />
        </mxCell>
        <mxCell id="cbsw2s5uwA30YLcsl4jI-46" value="&lt;font style=&quot;font-size: 10px;&quot;&gt;kelas&lt;/font&gt;" style="ellipse;whiteSpace=wrap;html=1;align=center;" parent="1" vertex="1">
          <mxGeometry x="350" y="790" width="50" height="30" as="geometry" />
        </mxCell>
        <mxCell id="cbsw2s5uwA30YLcsl4jI-47" value="jumlah_penumpang" style="ellipse;whiteSpace=wrap;html=1;align=center;" parent="1" vertex="1">
          <mxGeometry x="640" y="790" width="130" height="50" as="geometry" />
        </mxCell>
        <mxCell id="cbsw2s5uwA30YLcsl4jI-48" value="" style="endArrow=none;html=1;rounded=0;entryX=0.5;entryY=1;entryDx=0;entryDy=0;exitX=0.25;exitY=0;exitDx=0;exitDy=0;" parent="1" source="cbsw2s5uwA30YLcsl4jI-5" target="cbsw2s5uwA30YLcsl4jI-39" edge="1">
          <mxGeometry width="50" height="50" relative="1" as="geometry">
            <mxPoint x="430" y="390" as="sourcePoint" />
            <mxPoint x="455" y="345" as="targetPoint" />
          </mxGeometry>
        </mxCell>
        <mxCell id="cbsw2s5uwA30YLcsl4jI-49" value="" style="endArrow=none;html=1;rounded=0;entryX=0;entryY=1;entryDx=0;entryDy=0;exitX=0.75;exitY=0;exitDx=0;exitDy=0;" parent="1" source="cbsw2s5uwA30YLcsl4jI-5" target="cbsw2s5uwA30YLcsl4jI-38" edge="1">
          <mxGeometry width="50" height="50" relative="1" as="geometry">
            <mxPoint x="440" y="400" as="sourcePoint" />
            <mxPoint x="465" y="355" as="targetPoint" />
          </mxGeometry>
        </mxCell>
        <mxCell id="cbsw2s5uwA30YLcsl4jI-50" value="" style="endArrow=none;html=1;rounded=0;entryX=0;entryY=1;entryDx=0;entryDy=0;exitX=1;exitY=0;exitDx=0;exitDy=0;" parent="1" source="cbsw2s5uwA30YLcsl4jI-5" target="cbsw2s5uwA30YLcsl4jI-40" edge="1">
          <mxGeometry width="50" height="50" relative="1" as="geometry">
            <mxPoint x="575" y="395" as="sourcePoint" />
            <mxPoint x="630" y="339" as="targetPoint" />
          </mxGeometry>
        </mxCell>
        <mxCell id="cbsw2s5uwA30YLcsl4jI-51" value="" style="endArrow=none;html=1;rounded=0;exitX=1;exitY=0.5;exitDx=0;exitDy=0;entryX=0;entryY=0.5;entryDx=0;entryDy=0;" parent="1" source="cbsw2s5uwA30YLcsl4jI-5" target="cbsw2s5uwA30YLcsl4jI-41" edge="1">
          <mxGeometry width="50" height="50" relative="1" as="geometry">
            <mxPoint x="585" y="405" as="sourcePoint" />
            <mxPoint x="635" y="395" as="targetPoint" />
          </mxGeometry>
        </mxCell>
        <mxCell id="cbsw2s5uwA30YLcsl4jI-52" value="" style="endArrow=none;html=1;rounded=0;entryX=0;entryY=0;entryDx=0;entryDy=0;exitX=0.75;exitY=1;exitDx=0;exitDy=0;" parent="1" source="cbsw2s5uwA30YLcsl4jI-5" target="cbsw2s5uwA30YLcsl4jI-42" edge="1">
          <mxGeometry width="50" height="50" relative="1" as="geometry">
            <mxPoint x="595" y="415" as="sourcePoint" />
            <mxPoint x="650" y="359" as="targetPoint" />
          </mxGeometry>
        </mxCell>
        <mxCell id="cbsw2s5uwA30YLcsl4jI-53" value="&lt;font style=&quot;font-size: 10px;&quot;&gt;kode_booking&lt;/font&gt;" style="ellipse;whiteSpace=wrap;html=1;align=center;fontStyle=4;fillColor=#dae8fc;strokeColor=#6c8ebf;" parent="1" vertex="1">
          <mxGeometry x="640" y="575" width="100" height="40" as="geometry" />
        </mxCell>
        <mxCell id="cbsw2s5uwA30YLcsl4jI-54" value="&lt;font style=&quot;font-size: 10px;&quot;&gt;asal_penerbangan&lt;/font&gt;" style="ellipse;whiteSpace=wrap;html=1;align=center;" parent="1" vertex="1">
          <mxGeometry x="685" y="675" width="100" height="40" as="geometry" />
        </mxCell>
        <mxCell id="cbsw2s5uwA30YLcsl4jI-55" value="&lt;font style=&quot;font-size: 10px;&quot;&gt;tujuan_penerbangan&lt;/font&gt;" style="ellipse;whiteSpace=wrap;html=1;align=center;" parent="1" vertex="1">
          <mxGeometry x="685" y="725" width="100" height="40" as="geometry" />
        </mxCell>
        <mxCell id="cbsw2s5uwA30YLcsl4jI-56" value="&lt;font style=&quot;font-size: 10px;&quot;&gt;maskapai&lt;/font&gt;" style="ellipse;whiteSpace=wrap;html=1;align=center;" parent="1" vertex="1">
          <mxGeometry x="675" y="625" width="100" height="40" as="geometry" />
        </mxCell>
        <mxCell id="cbsw2s5uwA30YLcsl4jI-58" value="id_pesanan" style="ellipse;whiteSpace=wrap;html=1;align=center;fontStyle=4;fillColor=#fff2cc;strokeColor=#d6b656;" parent="1" vertex="1">
          <mxGeometry x="485" y="45" width="100" height="40" as="geometry" />
        </mxCell>
        <mxCell id="cbsw2s5uwA30YLcsl4jI-59" value="&lt;u&gt;nik_penumpang&lt;/u&gt;" style="ellipse;whiteSpace=wrap;html=1;align=center;fillColor=#dae8fc;strokeColor=#6c8ebf;" parent="1" vertex="1">
          <mxGeometry x="400" y="85" width="100" height="40" as="geometry" />
        </mxCell>
        <mxCell id="cbsw2s5uwA30YLcsl4jI-65" value="" style="endArrow=none;html=1;rounded=0;entryX=0;entryY=1;entryDx=0;entryDy=0;exitX=1;exitY=0;exitDx=0;exitDy=0;" parent="1" source="cbsw2s5uwA30YLcsl4jI-6" target="cbsw2s5uwA30YLcsl4jI-53" edge="1">
          <mxGeometry width="50" height="50" relative="1" as="geometry">
            <mxPoint x="600" y="435" as="sourcePoint" />
            <mxPoint x="660" y="481" as="targetPoint" />
          </mxGeometry>
        </mxCell>
        <mxCell id="cbsw2s5uwA30YLcsl4jI-66" value="" style="endArrow=none;html=1;rounded=0;entryX=0;entryY=1;entryDx=0;entryDy=0;exitX=1;exitY=0.5;exitDx=0;exitDy=0;" parent="1" source="cbsw2s5uwA30YLcsl4jI-6" target="cbsw2s5uwA30YLcsl4jI-56" edge="1">
          <mxGeometry width="50" height="50" relative="1" as="geometry">
            <mxPoint x="600" y="665" as="sourcePoint" />
            <mxPoint x="645" y="605" as="targetPoint" />
          </mxGeometry>
        </mxCell>
        <mxCell id="cbsw2s5uwA30YLcsl4jI-67" value="" style="endArrow=none;html=1;rounded=0;entryX=0;entryY=0.5;entryDx=0;entryDy=0;exitX=1;exitY=0.75;exitDx=0;exitDy=0;" parent="1" source="cbsw2s5uwA30YLcsl4jI-6" target="cbsw2s5uwA30YLcsl4jI-54" edge="1">
          <mxGeometry width="50" height="50" relative="1" as="geometry">
            <mxPoint x="610" y="675" as="sourcePoint" />
            <mxPoint x="655" y="615" as="targetPoint" />
          </mxGeometry>
        </mxCell>
        <mxCell id="cbsw2s5uwA30YLcsl4jI-68" value="" style="endArrow=none;html=1;rounded=0;entryX=0;entryY=0.5;entryDx=0;entryDy=0;exitX=1;exitY=1;exitDx=0;exitDy=0;" parent="1" source="cbsw2s5uwA30YLcsl4jI-6" target="cbsw2s5uwA30YLcsl4jI-55" edge="1">
          <mxGeometry width="50" height="50" relative="1" as="geometry">
            <mxPoint x="620" y="685" as="sourcePoint" />
            <mxPoint x="665" y="625" as="targetPoint" />
          </mxGeometry>
        </mxCell>
        <mxCell id="cbsw2s5uwA30YLcsl4jI-69" value="" style="endArrow=none;html=1;rounded=0;entryX=0.5;entryY=0;entryDx=0;entryDy=0;exitX=0.75;exitY=1;exitDx=0;exitDy=0;" parent="1" source="cbsw2s5uwA30YLcsl4jI-6" target="cbsw2s5uwA30YLcsl4jI-47" edge="1">
          <mxGeometry width="50" height="50" relative="1" as="geometry">
            <mxPoint x="630" y="695" as="sourcePoint" />
            <mxPoint x="675" y="635" as="targetPoint" />
          </mxGeometry>
        </mxCell>
        <mxCell id="cbsw2s5uwA30YLcsl4jI-70" value="" style="endArrow=none;html=1;rounded=0;entryX=1;entryY=0;entryDx=0;entryDy=0;exitX=0.25;exitY=1;exitDx=0;exitDy=0;" parent="1" source="cbsw2s5uwA30YLcsl4jI-6" target="cbsw2s5uwA30YLcsl4jI-46" edge="1">
          <mxGeometry width="50" height="50" relative="1" as="geometry">
            <mxPoint x="640" y="705" as="sourcePoint" />
            <mxPoint x="685" y="645" as="targetPoint" />
          </mxGeometry>
        </mxCell>
        <mxCell id="cbsw2s5uwA30YLcsl4jI-75" value="" style="endArrow=none;html=1;rounded=0;entryX=0.5;entryY=1;entryDx=0;entryDy=0;exitX=0.5;exitY=0;exitDx=0;exitDy=0;" parent="1" source="cbsw2s5uwA30YLcsl4jI-2" target="cbsw2s5uwA30YLcsl4jI-58" edge="1">
          <mxGeometry width="50" height="50" relative="1" as="geometry">
            <mxPoint x="245" y="675" as="sourcePoint" />
            <mxPoint x="245" y="625" as="targetPoint" />
          </mxGeometry>
        </mxCell>
        <mxCell id="cbsw2s5uwA30YLcsl4jI-77" value="" style="endArrow=none;html=1;rounded=0;entryX=0.5;entryY=1;entryDx=0;entryDy=0;exitX=0;exitY=0.5;exitDx=0;exitDy=0;" parent="1" source="cbsw2s5uwA30YLcsl4jI-2" target="cbsw2s5uwA30YLcsl4jI-59" edge="1">
          <mxGeometry width="50" height="50" relative="1" as="geometry">
            <mxPoint x="265" y="695" as="sourcePoint" />
            <mxPoint x="265" y="645" as="targetPoint" />
          </mxGeometry>
        </mxCell>
        <mxCell id="cbsw2s5uwA30YLcsl4jI-82" value="nama penumpang" style="ellipse;whiteSpace=wrap;html=1;align=center;" parent="1" vertex="1">
          <mxGeometry x="575" y="85" width="100" height="40" as="geometry" />
        </mxCell>
        <mxCell id="cbsw2s5uwA30YLcsl4jI-83" value="" style="endArrow=none;html=1;rounded=0;entryX=0.5;entryY=1;entryDx=0;entryDy=0;exitX=1;exitY=0.5;exitDx=0;exitDy=0;" parent="1" source="cbsw2s5uwA30YLcsl4jI-2" target="cbsw2s5uwA30YLcsl4jI-82" edge="1">
          <mxGeometry width="50" height="50" relative="1" as="geometry">
            <mxPoint x="210" y="705" as="sourcePoint" />
            <mxPoint x="185" y="765" as="targetPoint" />
          </mxGeometry>
        </mxCell>
        <mxCell id="cbsw2s5uwA30YLcsl4jI-87" style="edgeStyle=orthogonalEdgeStyle;rounded=0;orthogonalLoop=1;jettySize=auto;html=1;exitX=0.5;exitY=1;exitDx=0;exitDy=0;" parent="1" source="_WI1TuEGPHx-UAho9HKx-16" edge="1">
          <mxGeometry relative="1" as="geometry">
            <mxPoint x="440" y="485" as="sourcePoint" />
            <mxPoint x="440" y="485" as="targetPoint" />
          </mxGeometry>
        </mxCell>
        <mxCell id="_WI1TuEGPHx-UAho9HKx-1" value="membuat" style="shape=rhombus;perimeter=rhombusPerimeter;whiteSpace=wrap;html=1;align=center;" parent="1" vertex="1">
          <mxGeometry x="335" y="375" width="120" height="60" as="geometry" />
        </mxCell>
        <mxCell id="_WI1TuEGPHx-UAho9HKx-4" value="memiliki" style="shape=rhombus;perimeter=rhombusPerimeter;whiteSpace=wrap;html=1;align=center;" parent="1" vertex="1">
          <mxGeometry x="475" y="235" width="120" height="60" as="geometry" />
        </mxCell>
        <mxCell id="_WI1TuEGPHx-UAho9HKx-5" value="1" style="endArrow=none;html=1;rounded=0;entryX=0.5;entryY=0;entryDx=0;entryDy=0;exitX=0.5;exitY=1;exitDx=0;exitDy=0;" parent="1" source="_WI1TuEGPHx-UAho9HKx-4" target="cbsw2s5uwA30YLcsl4jI-5" edge="1">
          <mxGeometry x="0.6667" y="10" width="50" height="50" relative="1" as="geometry">
            <mxPoint x="575" y="185" as="sourcePoint" />
            <mxPoint x="575" y="265" as="targetPoint" />
            <mxPoint as="offset" />
          </mxGeometry>
        </mxCell>
        <mxCell id="_WI1TuEGPHx-UAho9HKx-6" value="&lt;font style=&quot;font-size: 10px;&quot;&gt;tgl_keberangkatan&lt;/font&gt;" style="ellipse;whiteSpace=wrap;html=1;align=center;" parent="1" vertex="1">
          <mxGeometry x="285" y="750" width="100" height="40" as="geometry" />
        </mxCell>
        <mxCell id="_WI1TuEGPHx-UAho9HKx-7" value="" style="endArrow=none;html=1;rounded=0;entryX=1;entryY=0;entryDx=0;entryDy=0;exitX=0.101;exitY=0.999;exitDx=0;exitDy=0;exitPerimeter=0;" parent="1" source="cbsw2s5uwA30YLcsl4jI-6" target="_WI1TuEGPHx-UAho9HKx-6" edge="1">
          <mxGeometry width="50" height="50" relative="1" as="geometry">
            <mxPoint x="470" y="600" as="sourcePoint" />
            <mxPoint x="615" y="550" as="targetPoint" />
          </mxGeometry>
        </mxCell>
        <mxCell id="_WI1TuEGPHx-UAho9HKx-8" value="&lt;font style=&quot;font-size: 10px;&quot;&gt;wkt_keberangkatan&lt;/font&gt;" style="ellipse;whiteSpace=wrap;html=1;align=center;" parent="1" vertex="1">
          <mxGeometry x="300" y="695" width="100" height="40" as="geometry" />
        </mxCell>
        <mxCell id="_WI1TuEGPHx-UAho9HKx-9" value="" style="endArrow=none;html=1;rounded=0;entryX=1;entryY=0.5;entryDx=0;entryDy=0;exitX=0;exitY=0.75;exitDx=0;exitDy=0;" parent="1" source="cbsw2s5uwA30YLcsl4jI-6" target="_WI1TuEGPHx-UAho9HKx-8" edge="1">
          <mxGeometry width="50" height="50" relative="1" as="geometry">
            <mxPoint x="525" y="685" as="sourcePoint" />
            <mxPoint x="625" y="560" as="targetPoint" />
          </mxGeometry>
        </mxCell>
        <mxCell id="_WI1TuEGPHx-UAho9HKx-10" value="&lt;font style=&quot;font-size: 10px;&quot;&gt;harga_tiket&lt;/font&gt;" style="ellipse;whiteSpace=wrap;html=1;align=center;" parent="1" vertex="1">
          <mxGeometry x="285" y="645" width="100" height="40" as="geometry" />
        </mxCell>
        <mxCell id="_WI1TuEGPHx-UAho9HKx-11" value="" style="endArrow=none;html=1;rounded=0;entryX=1;entryY=0.5;entryDx=0;entryDy=0;exitX=0;exitY=0.5;exitDx=0;exitDy=0;" parent="1" source="cbsw2s5uwA30YLcsl4jI-6" target="_WI1TuEGPHx-UAho9HKx-10" edge="1">
          <mxGeometry width="50" height="50" relative="1" as="geometry">
            <mxPoint x="445" y="665" as="sourcePoint" />
            <mxPoint x="615" y="510" as="targetPoint" />
          </mxGeometry>
        </mxCell>
        <mxCell id="_WI1TuEGPHx-UAho9HKx-12" value="&lt;font style=&quot;font-size: 10px;&quot;&gt;total_harga&lt;/font&gt;" style="ellipse;whiteSpace=wrap;html=1;align=center;" parent="1" vertex="1">
          <mxGeometry x="310" y="595" width="100" height="40" as="geometry" />
        </mxCell>
        <mxCell id="_WI1TuEGPHx-UAho9HKx-13" value="" style="endArrow=none;html=1;rounded=0;entryX=1;entryY=1;entryDx=0;entryDy=0;exitX=0;exitY=0.25;exitDx=0;exitDy=0;" parent="1" source="cbsw2s5uwA30YLcsl4jI-6" target="_WI1TuEGPHx-UAho9HKx-12" edge="1">
          <mxGeometry width="50" height="50" relative="1" as="geometry">
            <mxPoint x="465" y="705" as="sourcePoint" />
            <mxPoint x="625" y="520" as="targetPoint" />
          </mxGeometry>
        </mxCell>
        <mxCell id="_WI1TuEGPHx-UAho9HKx-14" value="id_pesanan" style="ellipse;whiteSpace=wrap;html=1;align=center;fontStyle=4;fillColor=#fff2cc;strokeColor=#d6b656;" parent="1" vertex="1">
          <mxGeometry x="410" y="575" width="100" height="40" as="geometry" />
        </mxCell>
        <mxCell id="_WI1TuEGPHx-UAho9HKx-15" value="" style="endArrow=none;html=1;rounded=0;entryX=0.5;entryY=1;entryDx=0;entryDy=0;exitX=0.25;exitY=0;exitDx=0;exitDy=0;" parent="1" source="cbsw2s5uwA30YLcsl4jI-6" target="_WI1TuEGPHx-UAho9HKx-14" edge="1">
          <mxGeometry width="50" height="50" relative="1" as="geometry">
            <mxPoint x="500" y="655" as="sourcePoint" />
            <mxPoint x="230" y="1125" as="targetPoint" />
          </mxGeometry>
        </mxCell>
        <mxCell id="_WI1TuEGPHx-UAho9HKx-17" value="" style="endArrow=none;html=1;rounded=0;entryX=0.25;entryY=1;entryDx=0;entryDy=0;exitX=1;exitY=0;exitDx=0;exitDy=0;" parent="1" source="_WI1TuEGPHx-UAho9HKx-16" target="cbsw2s5uwA30YLcsl4jI-5" edge="1">
          <mxGeometry width="50" height="50" relative="1" as="geometry">
            <mxPoint x="352.5" y="485" as="sourcePoint" />
            <mxPoint x="542.5" y="435" as="targetPoint" />
          </mxGeometry>
        </mxCell>
        <mxCell id="_WI1TuEGPHx-UAho9HKx-18" value="" style="edgeStyle=orthogonalEdgeStyle;rounded=0;orthogonalLoop=1;jettySize=auto;html=1;exitX=0.5;exitY=1;exitDx=0;exitDy=0;" parent="1" target="_WI1TuEGPHx-UAho9HKx-16" edge="1">
          <mxGeometry relative="1" as="geometry">
            <mxPoint x="440" y="485" as="sourcePoint" />
            <mxPoint x="440" y="485" as="targetPoint" />
          </mxGeometry>
        </mxCell>
        <mxCell id="_WI1TuEGPHx-UAho9HKx-16" value="id" style="ellipse;whiteSpace=wrap;html=1;align=center;fontStyle=4;fillColor=#fff2cc;strokeColor=#d6b656;" parent="1" vertex="1">
          <mxGeometry x="410" y="445" width="100" height="40" as="geometry" />
        </mxCell>
        <mxCell id="_WI1TuEGPHx-UAho9HKx-19" value="menghasilkan" style="shape=rhombus;perimeter=rhombusPerimeter;whiteSpace=wrap;html=1;align=center;" parent="1" vertex="1">
          <mxGeometry x="475" y="815" width="120" height="60" as="geometry" />
        </mxCell>
        <mxCell id="_WI1TuEGPHx-UAho9HKx-20" value="1" style="endArrow=none;html=1;rounded=0;entryX=0.5;entryY=0;entryDx=0;entryDy=0;exitX=0.5;exitY=1;exitDx=0;exitDy=0;" parent="1" source="cbsw2s5uwA30YLcsl4jI-6" target="_WI1TuEGPHx-UAho9HKx-19" edge="1">
          <mxGeometry x="0.7778" y="10" width="50" height="50" relative="1" as="geometry">
            <mxPoint x="535" y="735" as="sourcePoint" />
            <mxPoint x="445" y="685" as="targetPoint" />
            <mxPoint as="offset" />
          </mxGeometry>
        </mxCell>
        <mxCell id="_WI1TuEGPHx-UAho9HKx-21" value="1" style="endArrow=none;html=1;rounded=0;entryX=0.5;entryY=1;entryDx=0;entryDy=0;exitX=0.5;exitY=0;exitDx=0;exitDy=0;" parent="1" source="_WI1TuEGPHx-UAho9HKx-22" target="_WI1TuEGPHx-UAho9HKx-19" edge="1">
          <mxGeometry x="0.75" y="-10" width="50" height="50" relative="1" as="geometry">
            <mxPoint x="535" y="935" as="sourcePoint" />
            <mxPoint x="455" y="695" as="targetPoint" />
            <mxPoint as="offset" />
          </mxGeometry>
        </mxCell>
        <mxCell id="_WI1TuEGPHx-UAho9HKx-22" value="rating" style="whiteSpace=wrap;html=1;align=center;" parent="1" vertex="1">
          <mxGeometry x="485" y="945" width="100" height="40" as="geometry" />
        </mxCell>
        <mxCell id="_WI1TuEGPHx-UAho9HKx-23" value="" style="endArrow=none;html=1;rounded=0;entryX=0.25;entryY=1;entryDx=0;entryDy=0;exitX=0.5;exitY=0;exitDx=0;exitDy=0;" parent="1" source="_WI1TuEGPHx-UAho9HKx-24" target="_WI1TuEGPHx-UAho9HKx-22" edge="1">
          <mxGeometry width="50" height="50" relative="1" as="geometry">
            <mxPoint x="475" y="1005" as="sourcePoint" />
            <mxPoint x="525" y="1185" as="targetPoint" />
          </mxGeometry>
        </mxCell>
        <mxCell id="_WI1TuEGPHx-UAho9HKx-24" value="comments" style="ellipse;whiteSpace=wrap;html=1;align=center;" parent="1" vertex="1">
          <mxGeometry x="425" y="1015" width="100" height="40" as="geometry" />
        </mxCell>
        <mxCell id="_WI1TuEGPHx-UAho9HKx-25" value="id_rating" style="ellipse;whiteSpace=wrap;html=1;align=center;fontStyle=4;fillColor=#dae8fc;strokeColor=#6c8ebf;" parent="1" vertex="1">
          <mxGeometry x="625" y="935" width="100" height="40" as="geometry" />
        </mxCell>
        <mxCell id="_WI1TuEGPHx-UAho9HKx-26" value="&lt;u&gt;kode_booking&lt;/u&gt;" style="ellipse;whiteSpace=wrap;html=1;align=center;fillColor=#fff2cc;strokeColor=#d6b656;" parent="1" vertex="1">
          <mxGeometry x="540" y="1015" width="100" height="40" as="geometry" />
        </mxCell>
        <mxCell id="_WI1TuEGPHx-UAho9HKx-27" value="star" style="ellipse;whiteSpace=wrap;html=1;align=center;" parent="1" vertex="1">
          <mxGeometry x="345" y="935" width="100" height="40" as="geometry" />
        </mxCell>
        <mxCell id="_WI1TuEGPHx-UAho9HKx-28" value="" style="endArrow=none;html=1;rounded=0;exitX=1;exitY=0.5;exitDx=0;exitDy=0;" parent="1" source="_WI1TuEGPHx-UAho9HKx-27" edge="1">
          <mxGeometry width="50" height="50" relative="1" as="geometry">
            <mxPoint x="425" y="1015" as="sourcePoint" />
            <mxPoint x="485" y="965" as="targetPoint" />
          </mxGeometry>
        </mxCell>
        <mxCell id="_WI1TuEGPHx-UAho9HKx-29" value="" style="endArrow=none;html=1;rounded=0;entryX=1;entryY=0.5;entryDx=0;entryDy=0;exitX=0;exitY=0.5;exitDx=0;exitDy=0;" parent="1" source="_WI1TuEGPHx-UAho9HKx-25" target="_WI1TuEGPHx-UAho9HKx-22" edge="1">
          <mxGeometry width="50" height="50" relative="1" as="geometry">
            <mxPoint x="535" y="975" as="sourcePoint" />
            <mxPoint x="560" y="1035" as="targetPoint" />
          </mxGeometry>
        </mxCell>
        <mxCell id="_WI1TuEGPHx-UAho9HKx-30" value="" style="endArrow=none;html=1;rounded=0;entryX=0.75;entryY=1;entryDx=0;entryDy=0;exitX=0.5;exitY=0;exitDx=0;exitDy=0;" parent="1" source="_WI1TuEGPHx-UAho9HKx-26" target="_WI1TuEGPHx-UAho9HKx-22" edge="1">
          <mxGeometry width="50" height="50" relative="1" as="geometry">
            <mxPoint x="425" y="1015" as="sourcePoint" />
            <mxPoint x="535" y="1035" as="targetPoint" />
          </mxGeometry>
        </mxCell>
      </root>
    </mxGraphModel>
  </diagram>
</mxfile>
